<?xml version="1.0" standalone="no"?>
<!DOCTYPE svg PUBLIC "-//W3C//DTD SVG 20010904//EN"
 "http://www.w3.org/TR/2001/REC-SVG-20010904/DTD/svg10.dtd">
<svg version="1.0" xmlns="http://www.w3.org/2000/svg"
 width="155.000000pt" height="155.000000pt" viewBox="0 0 155.000000 155.000000"
 preserveAspectRatio="xMidYMid meet">
<metadata>
Created by potrace 1.11, written by Peter Selinger 2001-2013
</metadata>
<g transform="translate(0.000000,155.000000) scale(0.100000,-0.100000)"
fill="#000000" stroke="none">
<path d="M760 1472 c0 -11 -9 -41 -20 -67 -11 -26 -20 -58 -20 -71 0 -14 -4
-22 -10 -19 -6 4 -10 -12 -10 -42 0 -30 -3 -43 -9 -35 -13 21 -19 -5 -15 -58
3 -34 1 -41 -7 -30 -8 11 -9 2 -6 -37 2 -34 0 -50 -6 -46 -7 4 -8 -14 -3 -51
4 -38 3 -55 -4 -51 -13 8 -13 -3 4 -59 13 -41 13 -46 0 -35 -13 10 -14 8 -10
-13 2 -14 12 -40 21 -58 16 -31 16 -32 -5 -25 -19 6 -21 4 -15 -17 4 -12 16
-41 27 -62 16 -32 17 -38 4 -33 -10 4 -13 1 -9 -9 3 -7 0 -14 -6 -14 -6 0 -11
9 -11 20 0 27 -32 89 -37 73 -8 -23 -21 -14 -33 21 -12 38 -40 69 -40 45 0 -8
-11 4 -23 26 -12 22 -27 40 -33 40 -6 0 -23 15 -38 33 -16 17 -31 30 -35 27
-4 -2 -18 10 -31 27 -15 20 -25 26 -30 19 -5 -8 -12 -4 -23 13 -17 25 -67 60
-53 37 12 -18 1 -13 -29 15 -22 20 -30 23 -36 12 -6 -9 -9 -10 -9 -1 0 11
-127 83 -145 83 -4 0 2 -12 13 -27 11 -16 23 -39 27 -53 4 -14 14 -32 22 -42
8 -9 16 -23 17 -32 1 -9 13 -27 26 -41 15 -16 19 -25 10 -25 -8 0 0 -14 18
-33 18 -18 30 -36 27 -39 -3 -3 7 -20 23 -38 17 -18 36 -40 44 -49 7 -9 25
-24 38 -34 14 -10 19 -15 13 -12 -7 3 -13 2 -13 -3 0 -6 18 -19 41 -30 27 -14
36 -23 27 -28 -8 -5 4 -15 37 -31 28 -12 44 -23 38 -23 -26 0 -12 -21 25 -38
20 -9 40 -21 44 -27 4 -5 8 -6 8 -1 0 5 6 3 14 -3 7 -6 38 -20 68 -30 30 -10
69 -26 87 -36 38 -19 47 -15 31 15 -17 33 -60 150 -55 150 11 0 67 -134 71
-170 3 -38 2 -39 -42 -56 -49 -19 -123 -92 -155 -156 -25 -48 -24 -49 9 -35
70 31 146 100 174 157 16 34 16 33 17 -117 1 -84 5 -153 10 -153 4 0 9 64 9
143 1 176 0 169 18 128 18 -43 86 -110 147 -145 39 -24 47 -25 47 -11 0 20
-53 99 -95 140 -16 17 -45 37 -63 44 -18 8 -31 16 -28 18 3 3 30 -6 60 -20 31
-14 56 -24 56 -21 0 2 14 -3 31 -12 24 -12 33 -13 39 -4 5 8 13 9 21 4 16 -9
159 -13 159 -3 0 3 14 3 31 1 19 -3 29 -1 26 5 -3 5 6 8 24 5 16 -2 29 0 29 5
0 5 6 10 13 10 7 0 38 8 70 18 56 18 78 31 54 33 -14 1 -94 29 -122 42 -11 6
-44 11 -72 13 -29 1 -53 4 -53 7 0 9 -144 5 -159 -4 -8 -5 -16 -4 -20 3 -8 12
-46 2 -121 -33 -25 -11 -51 -21 -59 -22 -8 -2 -18 -9 -23 -16 -7 -10 -8 -8 -4
5 3 9 1 17 -4 17 -5 0 -5 12 -1 28 12 40 62 156 71 166 12 12 -22 -100 -45
-147 -10 -21 -16 -39 -14 -42 3 -2 33 9 69 25 36 16 80 32 98 36 17 3 32 12
32 20 0 8 9 14 20 14 12 0 35 7 51 16 23 12 28 18 20 28 -9 10 -1 17 36 31 26
10 42 20 35 23 -16 5 -16 22 1 22 16 1 62 36 62 48 0 5 15 22 33 37 18 15 31
30 28 32 -2 3 10 18 27 34 18 15 26 29 19 29 -8 0 1 12 18 26 17 15 29 33 26
40 -3 8 4 22 15 33 11 10 21 25 23 32 1 8 4 19 8 24 4 6 22 40 40 75 l34 65
-82 -40 c-45 -22 -80 -43 -77 -47 2 -4 -2 -5 -10 -2 -9 3 -24 -6 -36 -22 -18
-23 -21 -24 -21 -8 0 15 -8 11 -35 -18 -19 -21 -35 -33 -35 -28 0 18 -15 10
-34 -19 -11 -16 -25 -27 -30 -25 -6 2 -24 -14 -40 -36 -17 -22 -33 -35 -36
-30 -4 6 -18 -11 -33 -37 -17 -31 -27 -41 -27 -28 0 19 0 19 -14 -1 -8 -11
-18 -33 -22 -48 -5 -21 -9 -24 -20 -15 -11 9 -18 3 -34 -32 -11 -24 -20 -51
-20 -59 -1 -9 -5 -5 -11 8 -6 15 -13 21 -21 16 -8 -5 -7 0 2 11 22 27 49 88
43 98 -3 5 -11 6 -19 3 -17 -7 -17 -6 0 30 8 16 17 40 21 54 7 22 6 23 -9 11
-19 -16 -19 -18 -1 42 13 42 13 49 0 53 -8 4 -12 11 -8 16 3 6 8 29 11 51 3
28 1 37 -7 32 -9 -5 -10 8 -6 47 5 40 4 49 -5 38 -9 -12 -11 -9 -9 15 3 69 0
88 -14 76 -11 -8 -13 -5 -9 19 2 16 1 38 -3 47 -5 10 -20 53 -35 95 -28 84
-40 104 -40 70z"/>
<path d="M374 489 c-1 -3 -17 -4 -34 -1 -17 2 -30 0 -30 -6 0 -6 -9 -8 -21 -5
-11 3 -30 1 -42 -6 -12 -6 -49 -19 -82 -30 l-60 -18 39 -17 c21 -9 44 -16 52
-16 7 0 15 -4 18 -9 3 -5 16 -7 28 -3 14 3 19 2 14 -6 -7 -11 17 -15 92 -16
12 0 22 -3 22 -6 0 -8 143 -4 164 5 13 6 17 5 12 -3 -8 -14 31 -7 50 9 8 6 14
7 14 2 0 -5 32 6 71 25 l72 35 -34 12 c-19 7 -47 18 -64 24 -16 7 -30 12 -30
11 0 -1 -17 6 -37 14 -45 19 -51 20 -42 4 5 -8 2 -9 -12 -3 -22 10 -154 13
-160 4z"/>
</g>
</svg>
